<?xml version="1.0" standalone="no"?>
<!DOCTYPE svg PUBLIC "-//W3C//DTD SVG 20010904//EN"
 "http://www.w3.org/TR/2001/REC-SVG-20010904/DTD/svg10.dtd">
<svg version="1.0" xmlns="http://www.w3.org/2000/svg"
 width="512.000000pt" height="512.000000pt" viewBox="0 0 512.000000 512.000000"
 preserveAspectRatio="xMidYMid meet">
<metadata>
Created by potrace 1.14, written by Peter Selinger 2001-2017
</metadata>
<g transform="translate(0.000000,512.000000) scale(0.100000,-0.100000)"
fill="#000000" stroke="none">
<path d="M2326 4593 c-60 -7 -157 -24 -215 -38 -58 -14 -117 -27 -131 -31 -13
-3 -72 -23 -130 -45 -58 -22 -109 -41 -115 -42 -5 -1 -13 -6 -16 -10 -3 -5
-13 -9 -21 -11 -8 -1 -27 -9 -41 -19 -15 -9 -29 -17 -33 -17 -14 0 -226 -132
-287 -179 -94 -71 -114 -88 -218 -191 -282 -277 -490 -660 -563 -1035 -31
-161 -38 -220 -41 -385 -3 -180 15 -345 60 -540 44 -187 157 -440 280 -625
119 -178 323 -399 448 -484 12 -8 24 -17 27 -21 28 -32 230 -155 354 -214 90
-43 324 -127 386 -140 14 -2 59 -11 100 -20 129 -26 150 -28 360 -31 187 -2
268 3 425 30 63 10 219 54 293 81 37 14 76 28 87 32 37 10 249 120 313 161 34
23 67 41 72 41 4 0 10 3 12 8 2 4 39 34 83 67 96 72 271 244 347 340 221 281
387 657 425 965 6 48 11 75 13 75 7 0 12 333 6 410 -3 37 -8 72 -22 170 -16
107 -72 317 -104 390 -5 11 -19 45 -31 75 -37 90 -116 237 -178 329 -314 467
-786 779 -1337 886 -163 31 -435 39 -608 18z"/>
</g>
</svg>
